<svg xmlns="http://www.w3.org/2000/svg" version="1.1" xmlns:xlink="http://www.w3.org/1999/xlink" xmlns:svgjs="http://svgjs.dev/svgjs" width="1000" height="1000" viewBox="0 0 1000 1000"><rect width="1000" height="1000" fill="#ffffff"></rect><g transform="matrix(0.7,0,0,0.7,149.57575757575756,340.40056077979443)"><svg viewBox="0 0 396 181" data-background-color="#0c1d36" preserveAspectRatio="xMidYMid meet" height="457" width="1000" xmlns="http://www.w3.org/2000/svg" xmlns:xlink="http://www.w3.org/1999/xlink"><g id="tight-bounds" transform="matrix(1,0,0,1,0.2400000000000091,-0.19834792479773)"><svg viewBox="0 0 395.52 181.39669584959546" height="181.39669584959546" width="395.52"><g><svg viewBox="0 0 395.52 181.39669584959546" height="181.39669584959546" width="395.52"><g><svg viewBox="0 0 395.52 181.39669584959546" height="181.39669584959546" width="395.52"><g><svg viewBox="0 0 395.52 181.39669584959546" height="181.39669584959546" width="395.52"><g transform="matrix(1,0,0,1,0,112.11043530956704)"><svg viewBox="0 0 395.52 69.28626054002842" height="69.28626054002842" width="395.52"><g id="textblocktransform"><svg viewBox="0 0 395.52 69.28626054002842" height="69.28626054002842" width="395.52" id="textblock"><g><svg viewBox="0 0 395.52 69.28626054002842" height="69.28626054002842" width="395.52"><g transform="matrix(1,0,0,1,0,0)"><svg width="395.52" viewBox="-1.42 -36.45 257.67 45.14" height="69.28626054002842" data-palette-color="#f9cc0b"><path d="M11.91-11.94L11.91-11.94 11.91-11.35Q11.91-10.94 11.94-10.77L11.94-10.77Q12.23-10.64 12.5-10.64L12.5-10.64Q13.21-10.64 13.21-11.6L13.21-11.6Q13.21-14.09 13.79-20.97L13.79-20.97Q14.11-24.71 14.18-25.37L14.18-25.37Q16.48-26.9 19.69-26.9 22.9-26.9 24.66-25.2L24.66-25.2Q26.22-23.63 26.22-21.14L26.22-21.14Q26.22-19.46 25.76-17.65L25.76-17.65Q23.49-8.89 21.24-3.86L21.24-3.86Q20.04-1.25 17.6-0.29L17.6-0.29Q15.8 0.44 12.45 0.44L12.45 0.44Q10.67 0.44 8.92 0.15 7.18-0.15 6.25-0.54L6.25-0.54Q2.71-7.76 0.42-16.53L0.42-16.53Q-0.34-17.29-0.88-18.65-1.42-20.02-1.42-21.48L-1.42-21.48Q-1.42-24.51 0.05-26.68L0.05-26.68Q0.05-26.68 6.13-26.68L6.13-26.68Q9.33-26.68 10.89-24.88L10.89-24.88Q12.06-23.51 12.4-20.9L12.4-20.9Q11.91-16.36 11.91-11.94ZM40.09-21.97L40.09-21.97 40.09-12.3Q40.09-8.67 41.84-7.57L41.84-7.57Q41.87-7.45 41.87-7.1L41.87-7.1 41.87-6.67Q41.87-3.08 39.91-1.27L39.91-1.27Q38.11 0.44 35.09 0.44 32.08 0.44 30.12-1.27L30.12-1.27Q27.66-3.44 27.66-7.62L27.66-7.62 27.66-23.49Q28.1-23.8 28.61-24 29.12-24.19 29.68-24.49L29.68-24.49Q28.64-25.02 27.78-26.35 26.93-27.69 26.93-29.47L26.93-29.47Q26.93-32.54 28.95-34.5 30.98-36.45 33.92-36.45 36.86-36.45 38.85-34.46 40.84-32.47 40.84-29.47L40.84-29.47Q40.84-27.05 39.33-25.23 37.81-23.41 35.64-22.95L35.64-22.95Q35.64-22.02 36.35-22.02L36.35-22.02Q37.6-22.02 38.89-23L38.89-23Q39.87-22.24 40.09-21.97ZM54.83-9.99L54.83-9.99Q55.07-9.74 55.41-9.74L55.41-9.74Q55.95-9.74 56.15-10.51 56.34-11.28 56.34-13.62L56.34-13.62 56.34-16.11Q56.34-16.77 56.17-17.04 56-17.31 55.61-17.31 55.22-17.31 55.05-17.14L55.05-17.14 55.05-13.87Q55.05-12.4 54.83-9.99ZM55.81-29.98L55.81-29.98 55.81-27.81Q53.75-27.69 52.05-27.19 50.34-26.68 50.34-26.03L50.34-26.03Q50.34-25.63 50.73-25.39L50.73-25.39Q53.41-26.71 56.42-26.71L56.42-26.71Q61.79-26.71 65.22-23.01 68.65-19.31 68.65-13.38L68.65-13.38Q68.65-6.2 64.5-2.56L64.5-2.56Q60.71 0.76 54.21 0.76 47.7 0.76 44.62-1.76L44.62-1.76Q42.94-3.15 42.94-5.37L42.94-5.37 42.94-33.23Q44.11-33.91 45.76-34.35 47.41-34.79 49.09-34.79L49.09-34.79Q51.9-34.79 53.73-33.69L53.73-33.69Q55.81-32.4 55.81-29.98ZM84.29 0.76L84.29 0.76Q77.53 0.76 73.63-3L73.63-3Q69.62-6.79 69.62-13.37 69.62-19.95 73.75-23.8L73.75-23.8Q77.56-27.39 83.39-27.39 89.23-27.39 92.75-24.18 96.28-20.97 96.28-16.28L96.28-16.28Q96.28-12.11 93.38-9.99L93.38-9.99Q90.69-7.98 86.05-7.98L86.05-7.98Q82.59-7.98 80.19-9.42L80.19-9.42Q80-9.28 80-8.89L80-8.89Q80-8.15 81.93-7.54L81.93-7.54Q83.85-6.88 86.31-6.88 88.76-6.88 90.78-7.51 92.79-8.13 94.01-8.98L94.01-8.98Q94.6-8.47 94.95-7.09 95.31-5.71 95.31-4.58 95.31-3.44 95.09-2.56L95.09-2.56Q93.18-0.95 91.18-0.27L91.18-0.27Q88.35 0.76 84.29 0.76ZM83.98-15.77L83.98-15.77Q85.2-15.77 85.2-16.7L85.2-16.7Q85.2-17.58 83.9-17.58 82.61-17.58 82.41-16.19L82.41-16.19Q83.1-15.77 83.98-15.77ZM110.85-19.14L110.85-19.14Q110.22-18.95 110.22-18.38L110.22-18.38 110.22-18.26Q110.22-18.14 110.24-18.12L110.24-18.12Q110.51-18.14 110.95-18.14L110.95-18.14 111.54-18.14Q114.32-18.14 116.75-17.3 119.18-16.46 120.72-14.6L120.72-14.6Q122.43-12.5 122.43-9.3L122.43-9.3Q122.43-4.32 118.98-1.78 115.54 0.76 109.78 0.76 104.02 0.76 100.76-1.15 97.5-3.05 97.5-6.74L97.5-6.74Q97.5-8.11 98.09-9.24 98.67-10.38 99.4-10.84L99.4-10.84Q100.75-9.72 103.3-8.9 105.85-8.08 108.71-8.08L108.71-8.08Q109.85-8.08 109.85-8.72L109.85-8.72Q109.85-9.01 109.78-9.2L109.78-9.2Q109.61-9.18 109.37-9.18L109.37-9.18 109.1-9.18Q103.92-9.18 100.82-11.23L100.82-11.23Q97.3-13.55 97.3-17.77 97.3-22 100.45-24.61L100.45-24.61Q103.95-27.49 110.05-27.49L110.05-27.49Q113.05-27.49 115.65-26.86 118.25-26.22 120.11-25.17L120.11-25.17Q120.57-24.17 120.57-22.22L120.57-22.22Q120.57-19.24 118.94-17.65L118.94-17.65Q117.69-18.33 115.9-18.79 114.1-19.24 112.66-19.24 111.22-19.24 110.85-19.14ZM136.34-13.18L136.34-13.18 136.34-9.91Q136.51-9.74 136.9-9.74 137.29-9.74 137.46-10.01 137.63-10.28 137.63-10.94L137.63-10.94 137.63-13.43Q137.63-15.77 137.44-16.54 137.24-17.31 136.71-17.31L136.71-17.31Q136.36-17.31 136.12-17.07L136.12-17.07Q136.34-14.65 136.34-13.18ZM128.55-23.71L128.55-23.71Q128.55-22.97 129.41-22.97L129.41-22.97Q130.87-25.27 132.85-26.38 134.83-27.49 137.61-27.49 140.39-27.49 142.69-26.61L142.69-26.61Q145.84-25.37 147.67-22.61L147.67-22.61Q149.96-19.12 149.96-13.45L149.96-13.45Q149.96-7.08 146.56-3.55 143.15-0.02 137.12-0.02L137.12-0.02Q133.75-0.02 131.87-0.85L131.87-0.85Q131.7-0.76 131.7-0.44L131.7-0.44Q131.7 0.29 132.84 0.61 133.97 0.93 136.76 1.07L136.76 1.07 136.76 7.57Q134.24 8.69 131.24 8.69L131.24 8.69Q127.7 8.69 125.89 7.4L125.89 7.4Q123.84 6.01 123.84 3.13L123.84 3.13 123.84-16.53Q122.4-18.55 122.4-21.56L122.4-21.56Q122.4-22.78 122.79-24.22 123.18-25.66 123.84-26.68L123.84-26.68 127.31-26.68Q129.43-26.68 130.55-26.1L130.55-26.1Q128.55-24.61 128.55-23.71ZM176.91-16.85L176.84-12.08Q176.84-10.33 177.23-9.25 177.62-8.18 178.6-7.57L178.6-7.57Q178.62-7.45 178.62-7.1L178.62-7.1 178.62-6.67Q178.62-3.3 176.68-1.43 174.74 0.44 171.68 0.44 168.61 0.44 166.71-1.29L166.71-1.29Q164.49-3.27 164.49-7.3L164.49-7.3Q164.49-9.01 164.65-10.31 164.8-11.62 164.87-12.18 164.93-12.74 165-13.23 165.07-13.72 165.07-14.67 165.07-15.63 164.82-16.04 164.56-16.46 164.11-16.46 163.66-16.46 163.32-16.26L163.32-16.26 163.63-12.28Q163.19-9.81 163.19-7.06 163.19-4.3 164.44-2.03L164.44-2.03Q162.05 0.44 157.72 0.44L157.72 0.44Q155.26 0.44 153.45-0.85L153.45-0.85Q151.35-2.32 151.35-4.74L151.35-4.74 151.35-33.23Q152.52-33.91 154.17-34.35 155.82-34.79 157.5-34.79L157.5-34.79Q160.31-34.79 162.14-33.69L162.14-33.69Q164.22-32.4 164.22-29.98L164.22-29.98 164.22-27.66Q162.09-27.54 160.14-26.44L160.14-26.44Q158.46-25.46 158.46-24.66L158.46-24.66Q158.46-24.39 158.65-24.18 158.85-23.97 159.12-23.93L159.12-23.93Q160.14-25.12 162.01-25.93 163.88-26.73 166.44-26.73 169-26.73 171.05-25.95L171.05-25.95Q173.64-24.98 175.13-22.97L175.13-22.97Q176.91-20.53 176.91-16.85L176.91-16.85ZM193.59 0.76L193.59 0.76Q186.82 0.76 182.92-3L182.92-3Q178.91-6.79 178.91-13.37 178.91-19.95 183.04-23.8L183.04-23.8Q186.85-27.39 192.68-27.39 198.52-27.39 202.05-24.18 205.57-20.97 205.57-16.28L205.57-16.28Q205.57-12.11 202.67-9.99L202.67-9.99Q199.98-7.98 195.34-7.98L195.34-7.98Q191.88-7.98 189.48-9.42L189.48-9.42Q189.29-9.28 189.29-8.89L189.29-8.89Q189.29-8.15 191.22-7.54L191.22-7.54Q193.15-6.88 195.6-6.88 198.05-6.88 200.07-7.51 202.08-8.13 203.3-8.98L203.3-8.98Q203.89-8.47 204.24-7.09 204.6-5.71 204.6-4.58 204.6-3.44 204.38-2.56L204.38-2.56Q202.47-0.95 200.47-0.27L200.47-0.27Q197.64 0.76 193.59 0.76ZM193.27-15.77L193.27-15.77Q194.49-15.77 194.49-16.7L194.49-16.7Q194.49-17.58 193.2-17.58 191.9-17.58 191.71-16.19L191.71-16.19Q192.39-15.77 193.27-15.77ZM213.99 0.32L213.99 0.32Q211.09 0.32 209.36-0.73L209.36-0.73Q207.43-1.83 207.43-3.98L207.43-3.98 207.43-16.55Q205.99-18.58 205.99-21.55 205.99-24.51 207.43-26.68L207.43-26.68 211.16-26.68Q214.04-26.68 215.29-24.83L215.29-24.83Q214.68-24.15 214.21-23.1 213.75-22.05 213.75-21.59 213.75-21.14 213.98-20.92 214.21-20.7 214.65-20.7L214.65-20.7Q215.51-24.1 217.9-25.68L217.9-25.68Q219.88-27.03 222.78-27.03L222.78-27.03Q226.4-27.03 228.45-25.49L228.45-25.49Q229.18-23.54 229.18-20.72 229.18-17.9 228.06-15.6L228.06-15.6Q227.23-15.16 225.76-14.86 224.3-14.55 222.81-14.55 221.32-14.55 220.13-14.76 218.95-14.97 218.41-15.14L218.41-15.14Q218.22-14.94 218.22-14.58 218.22-14.21 218.69-14.03 219.17-13.84 220.29-13.62L220.29-13.62 220.29-1.37Q217.63 0.32 213.99 0.32ZM244.26 0.76L244.26 0.76Q237.5 0.76 233.6-3L233.6-3Q229.59-6.79 229.59-13.37 229.59-19.95 233.72-23.8L233.72-23.8Q237.53-27.39 243.36-27.39 249.2-27.39 252.72-24.18 256.25-20.97 256.25-16.28L256.25-16.28Q256.25-12.11 253.35-9.99L253.35-9.99Q250.66-7.98 246.02-7.98L246.02-7.98Q242.56-7.98 240.16-9.42L240.16-9.42Q239.97-9.28 239.97-8.89L239.97-8.89Q239.97-8.15 241.9-7.54L241.9-7.54Q243.83-6.88 246.28-6.88 248.73-6.88 250.75-7.51 252.76-8.13 253.98-8.98L253.98-8.98Q254.57-8.47 254.92-7.09 255.28-5.71 255.28-4.58 255.28-3.44 255.06-2.56L255.06-2.56Q253.15-0.95 251.15-0.27L251.15-0.27Q248.32 0.76 244.26 0.76ZM243.95-15.77L243.95-15.77Q245.17-15.77 245.17-16.7L245.17-16.7Q245.17-17.58 243.87-17.58 242.58-17.58 242.38-16.19L242.38-16.19Q243.07-15.77 243.95-15.77Z" opacity="1" transform="matrix(1,0,0,1,0,0)" fill="#000000" class="wordmark-text-0" data-fill-palette-color="primary" id="text-0"></path></svg></g></svg></g></svg></g></svg></g><g transform="matrix(1,0,0,1,125.59534672153747,0)"><svg viewBox="0 0 144.32930655692505 95.75361206631929" height="95.75361206631929" width="144.32930655692505"><g><svg xmlns="http://www.w3.org/2000/svg" xmlns:xlink="http://www.w3.org/1999/xlink" version="1.1" x="0" y="0" viewBox="5.0000730828999504 20.145 90.00081259122845 59.709999999999994" enable-background="new 0 0 100 100" xml:space="preserve" height="95.75361206631929" width="144.32930655692505" class="icon-icon-0" data-fill-palette-color="accent" id="icon-0"><path fill-rule="evenodd" clip-rule="evenodd" d="M88.965 72.488c-1.538 2.66-3.304 5.102-5.262 7.319l-3.876-3.876c1.633-1.881 3.123-3.931 4.414-6.168 8.667-15.011 6.35-33.315-4.409-45.701l3.886-3.885C96.178 34.274 98.894 55.291 88.965 72.488zM79.517 67.038c-1.049 1.814-2.258 3.474-3.566 5.018l-3.877-3.879c0.986-1.201 1.912-2.475 2.716-3.865 6.141-10.635 4.661-23.551-2.701-32.503l3.873-3.875C85.019 38.605 86.92 54.215 79.517 67.038zM70.101 61.607c-6.415 11.111-20.62 14.921-31.727 8.509-11.105-6.412-14.908-20.618-8.493-31.729 6.415-11.112 20.62-14.922 31.725-8.509C72.712 36.291 76.516 50.497 70.101 61.607zM58.173 35.822c-7.825-4.519-17.833-1.835-22.354 5.995-4.52 7.828-1.841 17.837 5.984 22.355 7.826 4.519 17.833 1.834 22.353-5.995C68.678 50.349 65.998 40.34 58.173 35.822zM43.163 61.81c-6.521-3.764-8.753-12.105-4.986-18.628 3.766-6.524 12.105-8.761 18.625-4.995 6.521 3.764 8.754 12.104 4.986 18.628C58.022 63.338 49.683 65.574 43.163 61.81zM55.445 40.544c-5.221-3.015-11.895-1.224-14.911 3.997-3.013 5.224-1.227 11.899 3.994 14.912 5.219 3.014 11.894 1.223 14.908-3.998C62.452 50.233 60.664 43.557 55.445 40.544zM48.628 52.364c-1.306-0.754-1.752-2.422-0.999-3.727 0.754-1.306 2.422-1.753 3.728-0.999 1.304 0.752 1.75 2.421 0.997 3.726C51.6 52.669 49.931 53.117 48.628 52.364zM27.944 68.235l-3.872 3.871c-9.098-10.674-11.017-26.313-3.601-39.157 1.058-1.831 2.276-3.505 3.598-5.06l3.88 3.88c-1.001 1.215-1.937 2.502-2.75 3.91C19.046 46.336 20.545 59.279 27.944 68.235zM20.205 75.975l-3.881 3.88C3.829 65.759 1.096 44.715 11.036 27.497c1.544-2.672 3.321-5.126 5.288-7.352l3.871 3.871c-1.644 1.891-3.142 3.953-4.442 6.204C7.074 45.253 9.409 63.588 20.205 75.975z" fill="#000000" data-fill-palette-color="accent"></path></svg></g></svg></g><g></g></svg></g></svg></g></svg></g><defs></defs></svg><rect width="395.52" height="181.39669584959546" fill="none" stroke="none" visibility="hidden"></rect></g></svg></g></svg>